HIERARCHY
ROOT joint_Root
{
	OFFSET 0.0 0.0 0.0
	CHANNELS 6 Xposition Yposition Zposition Zrotation Xrotation Yrotation 
	JOINT Hips
	{
		OFFSET -17.1583 93.1646 452.98
		CHANNELS 6 Xposition Yposition Zposition Zrotation Xrotation Yrotation 
		JOINT Spine
		{
			OFFSET 15.7357 0.0 0.0
			CHANNELS 6 Xposition Yposition Zposition Zrotation Xrotation Yrotation 
			JOINT Chest
			{
				OFFSET 8.98455 -0.406207 0.0
				CHANNELS 6 Xposition Yposition Zposition Zrotation Xrotation Yrotation 
				JOINT Neck
				{
					OFFSET 16.3773 0.0 0.0
					CHANNELS 6 Xposition Yposition Zposition Zrotation Xrotation Yrotation 
					JOINT Head
					{
						OFFSET 6.45672 0.0 0.0
						CHANNELS 6 Xposition Yposition Zposition Zrotation Xrotation Yrotation 
						End Site
						{
							OFFSET 0.0 0.0 0.0
						}
					}
				}
				JOINT Shoulder_L
				{
					OFFSET 12.9942 -0.242716 4.98039
					CHANNELS 6 Xposition Yposition Zposition Zrotation Xrotation Yrotation 
					JOINT UpperArm_L
					{
						OFFSET 5.34809 0.0 0.0
						CHANNELS 6 Xposition Yposition Zposition Zrotation Xrotation Yrotation 
						JOINT LowerArm_L
						{
							OFFSET 24.3286 1.87007e-05 0.0
							CHANNELS 6 Xposition Yposition Zposition Zrotation Xrotation Yrotation 
							JOINT Hand_L
							{
								OFFSET 22.2916 0.0 0.0
								CHANNELS 6 Xposition Yposition Zposition Zrotation Xrotation Yrotation 
								End Site
								{
									OFFSET 0.0 0.0 0.0
								}
							}
						}
					}
				}
				JOINT Shoulder_R
				{
					OFFSET 12.9945 -0.242716 -4.98039
					CHANNELS 6 Xposition Yposition Zposition Zrotation Xrotation Yrotation 
					JOINT UpperArm_R
					{
						OFFSET -5.34813 0.0 0.0
						CHANNELS 6 Xposition Yposition Zposition Zrotation Xrotation Yrotation 
						JOINT LowerArm_R
						{
							OFFSET -24.3289 0.000322201 0.0
							CHANNELS 6 Xposition Yposition Zposition Zrotation Xrotation Yrotation 
							JOINT Hand_R
							{
								OFFSET -22.2915 -0.000108084 0.0
								CHANNELS 6 Xposition Yposition Zposition Zrotation Xrotation Yrotation 
								End Site
								{
									OFFSET 0.0 0.0 0.0
								}
							}
						}
					}
				}
			}
		}
		JOINT UpperLeg_L
		{
			OFFSET -2.19248 -6.46944 0.0
			CHANNELS 6 Xposition Yposition Zposition Zrotation Xrotation Yrotation 
			JOINT LowerLeg_L
			{
				OFFSET 39.0811 0.0 -1.23785e-05
				CHANNELS 6 Xposition Yposition Zposition Zrotation Xrotation Yrotation 
				JOINT Foot_L
				{
					OFFSET 40.9854 0.0 -1.26872e-05
					CHANNELS 6 Xposition Yposition Zposition Zrotation Xrotation Yrotation 
					JOINT Toes_L
					{
						OFFSET 11.7543 0.0 0.0
						CHANNELS 6 Xposition Yposition Zposition Zrotation Xrotation Yrotation 
						End Site
						{
							OFFSET 0.0 0.0 0.0
						}
					}
				}
			}
		}
		JOINT UpperLeg_R
		{
			OFFSET -2.19251 6.46944 0.0
			CHANNELS 6 Xposition Yposition Zposition Zrotation Xrotation Yrotation 
			JOINT LowerLeg_R
			{
				OFFSET -39.0811 -0.00228153 -0.0401928
				CHANNELS 6 Xposition Yposition Zposition Zrotation Xrotation Yrotation 
				JOINT Foot_R
				{
					OFFSET -40.9854 0.0 0.0
					CHANNELS 6 Xposition Yposition Zposition Zrotation Xrotation Yrotation 
					JOINT Toes_R
					{
						OFFSET -11.7543 0.0 0.0
						CHANNELS 6 Xposition Yposition Zposition Zrotation Xrotation Yrotation 
						End Site
						{
							OFFSET 0.0 0.0 0.0
						}
					}
				}
			}
		}
	}
}
MOTION
Frames:	5
Frame Time:	0.0333333
0.000000 0.000000 0.000000 0.000000 0.000000 -0.000000 194.699000 88.561100 -171.466000 84.520000 -0.598764 -7.229610 15.735700 0.000005 -0.000001 20.466900 86.752200 -17.617700 8.984550 -0.406207 -0.000000 -5.346830 -6.403930 5.409380 16.377300 -0.000001 -0.000001 -4.970750 3.737990 -1.517420 6.456720 -0.000001 -0.000000 8.307950 8.178260 1.972820 12.994200 -0.242716 4.980390 -92.082600 7.606020 -74.637500 5.348090 -0.000007 -0.000001 -69.560200 -16.792600 -9.848160 24.328600 0.000019 0.000005 15.831000 14.532800 -48.492400 22.291600 -0.000001 0.000005 36.057600 4.425520 17.782000 12.994500 -0.242716 -4.980390 89.364100 1.875630 -71.267900 -5.348130 -0.000001 -0.000004 -55.687200 -4.230310 13.263700 -24.328900 0.000322 -0.000009 0.032416 0.757023 -2.527540 -22.291500 -0.000108 -0.000004 17.751400 5.226560 2.044210 -2.192480 -6.469440 -0.000000 -169.255000 -10.610100 14.024400 39.081100 -0.000007 -0.000012 -0.006381 0.022409 15.894400 40.985400 -0.000006 -0.000013 -2.749350 27.238500 -60.781800 11.754300 -0.000000 0.000003 -0.101949 -0.449379 -35.342300 -2.192510 6.469440 -0.000001 -177.858000 -9.386540 140.970000 -39.081100 -0.002282 -0.040193 0.028728 -0.038191 33.662500 -40.985400 0.000008 0.000006 -7.186620 -3.910070 -63.374900 -11.754300 -0.000006 -0.000006 -0.000978 0.182758 -9.159790
0.000000 0.000000 0.000000 0.000000 0.000000 -0.000000 194.072000 87.819100 -166.840000 84.260600 -0.337419 -7.310280 15.735700 0.000005 -0.000001 17.630400 86.928800 -14.559000 8.984550 -0.406207 -0.000000 -5.749980 -6.207480 5.842490 16.377300 -0.000001 -0.000001 -5.345790 3.831000 -1.959180 6.456720 -0.000001 -0.000000 7.941140 7.813270 0.672346 12.994200 -0.242716 4.980390 -92.166700 7.944610 -74.691500 5.348090 -0.000007 -0.000001 -70.581600 -15.280900 -6.597310 24.328600 0.000019 0.000005 14.023300 13.880300 -46.150700 22.291600 -0.000001 0.000005 38.442200 4.418300 17.922800 12.994500 -0.242716 -4.980390 89.246900 2.218270 -71.242000 -5.348130 -0.000001 -0.000004 -56.819500 -3.496700 11.629500 -24.328900 0.000322 -0.000009 -0.000937 -0.000047 -1.317030 -22.291500 -0.000108 -0.000004 17.327800 5.208170 2.515920 -2.192480 -6.469440 -0.000000 -168.891000 -8.766840 14.073100 39.081100 -0.000007 -0.000012 0.007900 -0.022557 19.302400 40.985400 -0.000006 -0.000013 -3.020450 26.231600 -56.102400 11.754300 -0.000000 0.000003 -0.181112 -0.612781 -42.708700 -2.192510 6.469440 -0.000001 -177.176000 -11.200700 139.954000 -39.081100 -0.002282 -0.040193 0.039707 -0.042104 40.868200 -40.985400 0.000008 0.000006 -6.903770 -5.785120 -67.168200 -11.754300 -0.000006 -0.000006 -0.002788 0.205847 -8.220890
0.000000 0.000000 0.000000 0.000000 0.000000 -0.000000 193.465000 87.152700 -161.888000 83.774300 0.050322 -6.274930 15.735700 0.000005 -0.000001 21.736000 86.958200 -18.342000 8.984550 -0.406207 -0.000000 -5.340920 -6.032020 6.518150 16.377300 -0.000001 -0.000001 -5.395160 3.858530 -2.351640 6.456720 -0.000001 -0.000000 7.601710 7.404940 -0.771868 12.994200 -0.242716 4.980390 -92.303800 8.449830 -74.688700 5.348090 -0.000007 -0.000001 -70.862200 -10.861100 -3.706600 24.328600 0.000019 0.000005 10.862400 12.829500 -40.827200 22.291600 -0.000001 0.000005 31.648400 4.598270 14.811600 12.994500 -0.242716 -4.980390 89.121500 2.611380 -71.398500 -5.348130 -0.000001 -0.000004 -58.579800 -2.015940 9.438090 -24.328900 0.000322 -0.000009 -0.001943 -0.164471 -0.299153 -22.291500 -0.000108 -0.000004 15.299800 5.174850 3.351440 -2.192480 -6.469440 -0.000000 -168.794000 -5.577050 13.863700 39.081100 -0.000007 -0.000012 0.032106 -0.070949 24.348100 40.985400 -0.000006 -0.000013 -3.622430 24.497200 -49.109900 11.754300 -0.000000 0.000003 -0.261414 -0.738544 -48.761400 -2.192510 6.469440 -0.000001 -175.561000 -12.027100 141.582000 -39.081100 -0.002282 -0.040193 0.046043 -0.040677 46.445100 -40.985400 0.000008 0.000006 -6.671280 -6.488260 -72.005800 -11.754300 -0.000006 -0.000006 -0.005793 0.236612 -6.967730
0.000000 0.000000 0.000000 0.000000 0.000000 -0.000000 192.932000 86.510300 -156.978000 83.561200 1.100480 -4.232350 15.735700 0.000005 -0.000001 30.414900 86.782100 -26.828000 8.984550 -0.406207 -0.000000 -4.323780 -5.923760 6.959450 16.377300 -0.000001 -0.000001 -5.062450 3.648450 -2.770850 6.456720 -0.000001 -0.000000 7.364620 6.665800 -1.786530 12.994200 -0.242716 4.980390 -92.582600 9.262610 -74.346000 5.348090 -0.000007 -0.000001 -70.656600 -3.943760 -2.779300 24.328600 0.000019 0.000005 9.398670 15.193700 -32.300800 22.291600 -0.000001 0.000005 15.750100 4.887910 9.348370 12.994500 -0.242716 -4.980390 88.816300 3.537580 -71.485800 -5.348130 -0.000001 -0.000004 -60.339100 0.404168 7.194010 -24.328900 0.000322 -0.000009 0.002897 0.603934 -0.364162 -22.291500 -0.000108 -0.000004 12.092100 5.146020 4.044010 -2.192480 -6.469440 -0.000000 -168.687000 -2.689900 11.997700 39.081100 -0.000007 -0.000012 0.054858 -0.085456 32.697800 40.985400 -0.000006 -0.000013 -4.089750 24.095100 -39.834900 11.754300 -0.000000 0.000003 -0.227701 -0.689260 -46.340100 -2.192510 6.469440 -0.000001 -173.634000 -10.885100 145.336000 -39.081100 -0.002282 -0.040193 0.044735 -0.034202 50.499400 -40.985400 0.000008 0.000006 -5.889920 -6.346250 -76.948200 -11.754300 -0.000006 -0.000006 -0.007237 0.249355 -6.447840
0.000000 0.000000 0.000000 0.000000 0.000000 -0.000000 192.460000 86.093900 -152.616000 83.197800 2.218800 -2.137610 15.735700 0.000005 -0.000001 40.546900 86.724900 -36.810100 8.984550 -0.406207 -0.000000 -3.329460 -5.336320 7.324650 16.377300 -0.000001 -0.000001 -4.334240 3.178820 -2.864240 6.456720 -0.000001 -0.000000 7.446360 5.536800 -2.322090 12.994200 -0.242716 4.980390 -92.861100 9.971620 -73.901300 5.348090 -0.000007 -0.000001 -71.054100 3.634640 -3.563430 24.328600 0.000019 0.000005 10.545000 26.218300 -22.882700 22.291600 -0.000001 0.000005 -0.878060 5.115970 4.559110 12.994500 -0.242716 -4.980390 88.517400 4.470170 -71.629500 -5.348130 -0.000001 -0.000004 -62.519700 3.605800 5.097100 -24.328900 0.000322 -0.000009 0.045630 1.597160 -1.665510 -22.291500 -0.000108 -0.000004 8.576550 5.148480 3.978230 -2.192480 -6.469440 -0.000000 -168.004000 -0.260123 7.369290 39.081100 -0.000007 -0.000012 0.092465 -0.099125 43.008300 40.985400 -0.000006 -0.000013 -9.355310 23.180600 -26.895900 11.754300 -0.000000 0.000003 -0.046653 -0.285628 -28.330900 -2.192510 6.469440 -0.000001 -171.756000 -8.841140 149.867000 -39.081100 -0.002282 -0.040193 0.036841 -0.025868 52.411000 -40.985400 0.000008 0.000006 -5.192370 -5.678310 -80.762200 -11.754300 -0.000006 -0.000006 -0.007414 0.250851 -6.386770
